<svg xmlns="http://www.w3.org/2000/svg" viewBox="0 0 30.38 36"><g id="Camada_2" data-name="Camada 2"><g id="Camada_1-2" data-name="Camada 1"><path d="M27.56,0H2.81A2.83,2.83,0,0,0,0,2.81V33.19A2.83,2.83,0,0,0,2.81,36H27.56a2.83,2.83,0,0,0,2.82-2.81V2.81A2.83,2.83,0,0,0,27.56,0ZM27,3.38V8.51H3.38V3.38ZM3.38,32.62V10.76H27V32.62Z"/><path d="M8.16,13.26a2.32,2.32,0,1,0,2.31,2.31A2.31,2.31,0,0,0,8.16,13.26Z"/><path d="M14.9,13.26a2.32,2.32,0,1,0,2.31,2.31A2.3,2.3,0,0,0,14.9,13.26Z"/><path d="M21.64,13.26A2.32,2.32,0,1,0,24,15.57,2.3,2.3,0,0,0,21.64,13.26Z"/><path d="M8.16,19.5a2.31,2.31,0,1,0,2.31,2.31A2.31,2.31,0,0,0,8.16,19.5Z"/><path d="M14.9,19.5a2.31,2.31,0,1,0,2.31,2.31A2.3,2.3,0,0,0,14.9,19.5Z"/><path d="M21.64,19.5A2.31,2.31,0,1,0,24,21.81,2.3,2.3,0,0,0,21.64,19.5Z"/><path d="M8.16,25.73a2.32,2.32,0,1,0,2.31,2.32A2.32,2.32,0,0,0,8.16,25.73Z"/><path d="M14.9,25.73a2.32,2.32,0,1,0,2.31,2.32A2.31,2.31,0,0,0,14.9,25.73Z"/><path d="M21.64,25.73A2.32,2.32,0,1,0,24,28.05,2.31,2.31,0,0,0,21.64,25.73Z"/></g></g></svg>