<svg xmlns="http://www.w3.org/2000/svg" viewBox="0 0 32 25.34"><g id="Camada_2" data-name="Camada 2"><g id="Camada_1-2" data-name="Camada 1"><path d="M28.08,4.09l-2-2.79A3.27,3.27,0,0,0,23.56,0H20.61a3.25,3.25,0,0,0-2.52,1.3L16.15,4H4.85A4.87,4.87,0,0,0,0,8.85V20.49a4.87,4.87,0,0,0,4.85,4.85h22.3A4.87,4.87,0,0,0,32,20.49V8.85A4.87,4.87,0,0,0,28.08,4.09Zm-8-1.38a.79.79,0,0,1,.25-.19,1.06,1.06,0,0,1,.3-.1h2.95a1.31,1.31,0,0,1,.3.1,1.45,1.45,0,0,1,.25.18L25,4h-5.9ZM15,21.42a6.91,6.91,0,1,1,6.91-6.91A6.91,6.91,0,0,1,15,21.42ZM2.91,20.49V8.85A2,2,0,0,1,4.85,6.91H8.09a10.27,10.27,0,0,0,.35,15.52H4.85A2,2,0,0,1,2.91,20.49Zm26.18,0a2,2,0,0,1-1.94,1.94H21.61A10.28,10.28,0,0,0,22,6.91h5.2a2,2,0,0,1,1.94,1.94Z"/></g></g></svg>