<?xml version="1.0" encoding="utf-8"?>
<!-- Generator: Adobe Illustrator 25.4.1, SVG Export Plug-In . SVG Version: 6.00 Build 0)  -->
<svg version="1.1" id="Layer_1" xmlns="http://www.w3.org/2000/svg" xmlns:xlink="http://www.w3.org/1999/xlink" x="0px" y="0px"
	 viewBox="0 0 116.1 122.9" style="enable-background:new 0 0 116.1 122.9;" xml:space="preserve">
<g>
	<path d="M74.8,109c-0.4,1.9-1,3.7-2,5.3c-1,1.7-2.2,3.2-3.8,4.5c-1.6,1.3-3.3,2.3-5.1,3c-1.8,0.7-3.8,1-5.9,1c-2.1,0-4-0.3-5.9-1
		c-1.8-0.7-3.5-1.7-5.1-3c-1.6-1.3-2.8-2.8-3.8-4.5s-1.6-3.5-2-5.5c-0.2-1,0.5-1.9,1.5-2.1c0,0,0.3,0,0.3,0h30c1,0,1.8,0.8,1.8,1.8
		C74.9,108.7,74.9,108.9,74.8,109L74.8,109L74.8,109z M71.9,11.9c2,0.8,4,1.8,5.9,2.9c0.1,0.1,0.2,0.1,0.2,0.1
		c1.8,1.1,3.5,2.3,5,3.6c3.3,2.8,6,6.1,8.2,9.9c1.1,1.9,2,3.8,2.8,5.9l0,0c0.8,2.1,1.4,4.2,1.8,6.4c0.4,2.2,0.6,4.5,0.6,6.8
		c0,4.6,0,7,0,7.3c0,2.3,0,4.6,0,6.9v0l0,0c0,2,0.1,4,0.4,6.1c0.2,2,0.6,3.9,1.1,5.8l0,0c0.5,1.8,1.1,3.6,1.9,5.3
		c0.8,1.8,1.8,3.5,3,5.1h0c1.2,1.6,2.6,3.3,4.3,4.9c1.8,1.7,3.9,3.3,6.3,4.9c1.4,0.9,1.7,2.8,0.8,4.1c-0.6,0.8-1.5,1.3-2.5,1.3v0
		H84.9H58.1H31.2H4.4c-1.7,0-3-1.3-3-3c0-1.1,0.6-2,1.4-2.6C5.2,92.2,7.3,90.6,9,89c1.7-1.6,3.2-3.2,4.3-4.9c0-0.1,0.1-0.1,0.1-0.1
		c1.1-1.6,2.1-3.3,2.9-5c0.8-1.7,1.5-3.5,1.9-5.3c0,0,0-0.1,0-0.1c0.5-1.8,0.8-3.7,1-5.6c0.2-2,0.4-4,0.4-6.1V47.6
		c0-2.3,0.2-4.5,0.6-6.8c0.4-2.2,1-4.4,1.8-6.4c0.8-2,1.7-4,2.8-5.9c2.2-3.8,4.9-7.1,8.3-9.9c1.6-1.4,3.4-2.7,5.3-3.8
		c1.9-1.1,3.9-2.1,5.9-2.9c1.4-0.5,2.9-1,4.4-1.4c0.5-1.8,1.4-3.2,2.6-4.3c1.7-1.5,4-2.3,6.8-2.3c2.8,0,5,0.8,6.7,2.3
		C71,11.6,63.5,8.6,71.9,11.9L71.9,11.9z"/>
</g>
</svg>
