<?xml version="1.0" encoding="utf-8"?>
<!-- Generator: Adobe Illustrator 25.4.1, SVG Export Plug-In . SVG Version: 6.00 Build 0)  -->
<svg version="1.1" id="Camada_1" xmlns="http://www.w3.org/2000/svg" xmlns:xlink="http://www.w3.org/1999/xlink" x="0px" y="0px"
	 viewBox="0 0 45.7 14.9" style="enable-background:new 0 0 45.7 14.9;" xml:space="preserve">
<style type="text/css">
	.st0{fill:#1D1D1B;}
</style>
<g id="Camada_2_00000136384946657722337310000002694576597545562008_">
	<g id="Camada_3">
		<path class="st0" d="M1.5,0C2,0,2.4,0.2,2.7,0.5L12,11.1l9.3-10.5c0.6-0.6,1.6-0.6,2.2,0c0.6,0.6,0.6,1.5,0.1,2.1L13.2,14.4
			c-0.6,0.6-1.6,0.7-2.3,0c0,0,0,0,0,0L0.4,2.6C-0.2,1.9-0.1,1,0.5,0.4c0,0,0,0,0,0C0.8,0.1,1.2,0,1.5,0z"/>
		<path class="st0" d="M23.3,14.9c0.4,0,0.9-0.2,1.2-0.5l9.3-10.5L43,14.4c0.5,0.7,1.4,0.9,2.1,0.4s0.9-1.4,0.4-2.1
			c-0.1-0.1-0.1-0.2-0.2-0.2L34.9,0.5c-0.6-0.6-1.6-0.7-2.2-0.1c0,0,0,0-0.1,0.1L22.1,12.4c-0.6,0.6-0.5,1.6,0.1,2.2
			C22.5,14.8,22.9,14.9,23.3,14.9z"/>
	</g>
</g>
</svg>
